<svg xmlns="http://www.w3.org/2000/svg" xmlns:xlink="http://www.w3.org/1999/xlink" width="320.201" height="74.519" viewBox="0 0 320.201 74.519">
  <defs>
    <clipPath id="clip-path">
      <ellipse id="Ellipse_1" data-name="Ellipse 1" cx="38.106" cy="37.259" rx="38.106" ry="37.259" transform="translate(0 0)" fill="#fff"/>
    </clipPath>
  </defs>
  <g id="Group_19448" data-name="Group 19448" transform="translate(12544 23936.533)">
    <path id="Path_53167" data-name="Path 53167" d="M22.23,14.066H27.1L15.784-11H11.2L-.08,14.066h4.8l2.471-5.8H19.723ZM8.765,4.612,13.456-6.347,18.183,4.612Zm31.764,9.812c6.84,0,10.958-3.975,10.958-11.28V-11H46.9V2.964c0,5.157-2.292,7.377-6.338,7.377s-6.374-2.22-6.374-7.377V-11H29.535V3.143C29.535,10.449,33.654,14.424,40.529,14.424Zm22.1-.358H67.28V-7.063h8.308V-11H54.316v3.939h8.308Zm27.825.358c7.771,0,13.5-5.443,13.5-12.892S98.22-11.36,90.449-11.36s-13.5,5.479-13.5,12.892S82.678,14.424,90.449,14.424Zm0-4.082A8.543,8.543,0,0,1,81.64,1.532a8.809,8.809,0,1,1,17.619,0A8.543,8.543,0,0,1,90.449,10.341Zm46.733,3.724L137.111-11h-5.837L122.679,3.466,113.869-11h-5.837V14.066h6.553V1.138L121,11.595h3.151L130.593.78l.072,13.286Zm23.778,0h7.377L157.236-11h-6.983L139.188,14.066h7.234l1.97-4.87h10.6Zm-10.493-10.1,3.223-8.022,3.223,8.022ZM187.245-11V2.355L176.18-11h-5.837V14.066h6.947V.708l11.065,13.357h5.837V-11Zm11.961,25.067h7.09V-11h-7.09Zm30.9,0h7.377L226.387-11H219.4L208.338,14.066h7.234l1.97-4.87h10.6Zm-10.493-10.1,3.223-8.022,3.223,8.022Z" transform="translate(-12461.287 -23899.91)" fill="#1f1deb"/>
    <g id="Mask_Group_31" data-name="Mask Group 31" transform="translate(-12544 -23936.533)" clip-path="url(#clip-path)">
      <path id="wheel" d="M146.382,7599.287a17.818,17.818,0,0,1-17.764-15.668h9.094c.994,4.478,4.5,6.715,8.671,6.715s7.677-2.237,8.671-6.715h9.094a17.819,17.819,0,0,1-17.764,15.668m0-35.811a17.818,17.818,0,0,1,17.764,15.667h-9.094c-.994-4.477-4.5-6.715-8.671-6.715s-7.677,2.238-8.671,6.715h-9.094a17.818,17.818,0,0,1,17.764-15.667m0-4.476a22.381,22.381,0,1,0,22.382,22.381A22.381,22.381,0,0,0,146.382,7559" transform="translate(-108.333 -7544.122)" fill="#1f1deb" fill-rule="evenodd"/>
      <path id="Ellipse_1-2" data-name="Ellipse 1" d="M27.32,0h1.567l.033,0h.1l.031,0h.129l.031,0,.028,0h.1l.032,0,.027,0,.026,0,.025,0,.025,0,.025,0,.032,0,.027,0,.026,0,.025,0,.025,0,.025,0,.033,0,.026,0,.025,0,.025,0,.025,0,.029,0,.03,0,.026,0,.025,0,.025,0,.025,0,.03,0,.029,0,.025,0,.025,0,.025,0,.025,0,.032,0,.027,0,.025,0,.025,0,.024,0,.025,0,.033,0,.026,0,.025,0,.025,0,.025,0,.025,0,.034,0,.026,0,.025,0,.025,0,.024,0,.031,0,.028,0,.026,0,.025,0,.025,0,.025,0,.036,0,.024,0,.025,0,.025,0,.025,0,.024,0,.035,0,.025,0,.024,0L31,.2l.025,0,.025,0,.035,0,.025,0,.025,0,.024,0,.025,0,.036,0,.024,0,.025,0,.024,0,.024,0,.024,0,.035,0,.025,0,.024,0,.025,0,.024,0,.024,0,.034,0,.025,0,.025,0,.024,0,.024,0,.024,0,.034,0,.026,0,.024,0,.025,0,.024,0,.033,0,.026,0,.024,0,.024,0,.025,0,.024,0,.033,0,.027,0,.024,0,.024,0,.024,0,.024,0,.035,0,.025,0,.024,0,.024,0,.024,0,.024,0,.037.005.022,0,.024,0,.024,0,.024,0,.024,0,.037.006.023,0,.024,0,.024,0,.024,0,.01,0,.05.008.024,0,.024,0,.024,0,.024,0,.042.007.018,0,.024,0,.024,0,.024,0,.024,0L32.89.46l.021,0,.024,0,.024,0,.024,0,.024,0,.035.006.024,0,.024,0,.024,0,.024,0,.024,0L33.2.513l.025,0,.024,0,.024,0,.023,0,.024,0h0l.045.008.024,0,.023,0,.024,0,.023,0,.036.007.024,0,.024,0,.024,0,.024,0,.024,0L33.647.6l.023,0,.024,0,.024,0,.024,0,.023,0L33.8.625l.024,0,.024,0,.023,0,.023,0,.022,0,.037.007.023,0,.024,0,.023,0,.022,0L34.1.685l.021,0,.023,0,.023,0,.024,0,.024,0,.035.007.024.005.024,0,.023,0,.024.005.031.007L34.4.748l.024.005.024.005.024.005L34.5.769l.028.006.028.006.025.005L34.6.792,34.626.8,34.65.8l.032.007.026.006.024.005.024.005.023.005L34.8.837l.031.007.026.006.024.006.024.006.023.005.023.005.032.008.025.006.024.006L35.058.9,35.082.9l.024.006.031.007.025.006.024.006.024.006.024.006.024.006.031.008.025.006.024.006.024.006.023.006.026.006.029.007.025.006L35.488,1l.024.006.023.006.024.006h0l.03.008.025.006.024.006.024.006.023.006.028.007.026.007.025.006.024.006.024.006.049.013h0l.028.007.025.007.024.006.024.006.049.013.024.006.024.007.025.007.026.007h0l.049.013h0l.023.006.024.007.026.007h0l.074.02h0l.023.006.024.007h0l.023.006h0l.074.021h0l.024.007h0l.023.006h0l.123.035h0l.025.007h0a33.292,33.292,0,0,1,3.349,1.164h0l.021.008h0l.022.009h0l.07.029h0l.022.009h0l.02.008h0l.02.008h0l.069.029h0l.018.008.006,0,.017.007.006,0,.018.007,0,0,.045.019,0,0,.018.008.006,0,.016.007.007,0,.016.007.023.01.006,0,.044.019.005,0,.017.007.007,0,.015.007.023.01.007,0,.017.007.005,0,.044.019.022.01.022.01.022.01.022.01.007,0,.022.009,0,0,.018.008.022.01.022.01.022.01.023.01.007,0,.021.009.022.01.022.01.022.01.022.01.024.011.007,0,.021.009.022.01.022.01.021.01.023.01.009,0,.017.008,0,0L41.2,3l.021.01.022.01.022.01.022.01.023.01.016.007.023.01.022.01.022.01.022.01.021.01.01,0,.021.01.021.01.022.01.021.01.022.01.021.01.009,0,.023.011.021.01.021.01.022.01.021.01.008,0,.024.011.02.01.021.01.022.01.021.01.022.01.008,0,.03.015.015.007.021.01.021.01.021.01.021.01.007,0L42,3.372l.02.01.021.01.021.01.021.01.021.01.006,0,.026.013.02.01.021.01.021.01.021.011.007,0,.044.022.021.011.021.011.021.011.021.01.01,0,.022.011.02.01.02.01.021.011.021.011.021.011.01.005.021.01.021.011.021.011.021.011.021.011.021.011.008,0,.022.011.021.011.021.011.021.011.021.011.021.011.013.007.017.009.021.011.022.011.021.011.021.011.021.011.02.01.021.011.021.011.021.011L43,3.88l.023.012.008,0,.02.011.008,0,.013.007.021.011.021.011.021.011.01.005.013.007.008,0,.02.011.008,0,.013.007.02.011.021.011.021.011.009,0,.014.008.012.006.014.008.021.011.021.012.021.012.009,0,.013.007.008,0,.02.011,0,0,.017.009.008,0,.013.007.021.011.009,0,.013.007.007,0,.015.008.006,0,.021.011,0,0,.017.01.007,0,.014.008.021.012.008,0,.014.008.007,0,.017.009,0,0,.021.012,0,0,.016.009.007,0,.014.008.021.012.008,0,.014.008.007,0,.02.011h0l.021.012,0,0,.016.009.007,0,.014.008.007,0,.014.008.007,0,.015.009.006,0,.042.024,0,0,.016.009.007,0,.014.008.007,0,.013.008.007,0,.015.009.006,0,.041.024.005,0,.016.009.007,0,.014.008.007,0,.014.008.006,0,.018.01h0l.021.012h0l.02.012,0,0,.017.01.005,0,.016.009.005,0,.016.01,0,0,.02.012h0l.042.025,0,0,.016.009.006,0,.015.009.005,0,.016.01,0,0,.042.025h0l.019.011,0,0,.017.01,0,0,.016.01,0,0,.018.011,0,0,.043.026h0l.02.012,0,0,.017.01,0,0,.017.01,0,0,.019.011h0l.042.026,0,0,.017.011,0,0,.016.01.005,0,.017.01,0,0,.02.012h0l.043.026h0l.02.012,0,0,.018.011,0,0,.018.011h0l.063.039h0l.019.012,0,0,.018.011,0,0,.019.012h0l.063.04h0l.019.012,0,0,.018.012,0,0,.02.013h0l.063.04,0,0,.018.011,0,0,.018.011h0l.02.013h0l.043.027h0l.02.013,0,0,.017.011,0,0,.017.011,0,0,.062.04h0l.019.012,0,0,.017.011,0,0,.018.012,0,0,.063.041h0l.019.013,0,0,.018.012,0,0,.019.012h0l.062.041h0l.018.012,0,0,.017.011,0,0,.019.012h0l.062.041h0l.018.012,0,0,.018.012,0,0,.02.013h0l.062.042h0l.019.013,0,0,.018.012h0l.02.014h0l.041.028,0,0,.018.012,0,0,.016.011,0,0,.017.012h0l.061.042h0l.018.012,0,0,.016.011,0,0,.017.012,0,0,.061.042,0,0,.017.011,0,0,.016.011,0,0,.017.012,0,0,.06.042,0,0L46.484,6l0,0,.016.011,0,0,.018.013h0l.041.029h0l.019.014,0,0,.016.011,0,0,.016.011,0,0,.018.013h0l.04.029,0,0,.017.012,0,0,.015.011.005,0,.014.01.006,0,.016.011,0,0,.039.028,0,0,.015.011.006,0,.014.01.005,0,.015.011,0,0L46.9,6.3h0l.02.014,0,0,.016.012.005,0,.014.01.007,0,.013.009.006,0,.013.01.006,0,.017.012h0l.019.014,0,0,.015.011.006,0,.013.009.007.005.012.009.007,0,.014.01.005,0,.038.028.005,0,.014.01.007.005.012.009.008.006.012.008.008.006.011.008.008.006.016.012.006,0,.016.012.008.006.011.008.009.006.01.007.009.007.01.007.009.007.01.008.009.007.012.009.015.011.009.007.01.007.009.007.009.007.009.007.01.008.009.006.01.008.008.006.039.029.007.005.011.008.007.006.011.008.008.006.011.008.007,0,.012.009.006,0,.043.032.005,0,.012.009.006,0,.012.009.007.005.012.009.006,0,.012.009h0l.047.036,0,0,.014.011,0,0,.014.011,0,0,.014.011,0,0,.066.051h0l.015.012,0,0,.015.011,0,0,.015.012h0L48,7.124h0l.017.013h0l.219.173a33.77,33.77,0,0,1,5.917,6.083h0l.09.12h0l.064.086h0l.012.017h0l.012.016h0l.063.085h0l.011.015,0,0,.011.015v0l.062.085h0l.011.016,0,0,.011.015,0,0,.061.084v0l.011.015,0,0L54.6,14l0,0,.049.068h0l.011.016,0,0,.011.015,0,0,.011.016h0l.048.068,0,0,.011.015,0,0,.01.015,0,0,.01.015,0,0,.046.066,0,0,.01.014,0,0,.01.014,0,0,.01.014,0,0,.046.066,0,0,.01.015,0,0,.01.015,0,0,.01.015h0l.035.051v0l.01.015,0,0,.009.013,0,.006.009.013,0,0,.01.014h0l.034.05,0,0,.01.014,0,.005.009.013,0,.005.009.014,0,.005.044.064,0,0,.009.014,0,.005.009.013,0,.006.009.013,0,.005.009.014,0,0,.02.029,0,0,.008.013,0,.007.008.012,0,.007.008.012,0,.006.009.013,0,.006.029.044,0,.006.008.012,0,.007.008.012,0,.007.008.012,0,.007.008.012,0,.006.029.044,0,.007.008.012.005.008.008.012.005.008.007.011.005.008.007.011.006.008.015.022,0,.007.007.011.006.009.007.01.006.009.007.011.006.009.007.011.006.009.007.011.005.008.013.02.006.009.007.011.006.009.007.01.006.009.007.01.006.01.006.01.006.009.007.011.006.009.012.018.007.01.006.01.006.01.006.01.006.01.007.01.006.01.006.01.007.011.006.009.009.014.009.015.006.01.006.01.006.01.006.009.007.011.006.009.007.011.005.009.008.013,0,.007.012.019,0,.007.008.013.006.009.007.011.006.01.006.01.006.01.006.01.006.009.008.012,0,.008.012.019,0,.007.008.013.005.009.007.012.005.009.007.012.005.009.008.012,0,.008.009.015,0,.005.012.02,0,.005.009.015,0,.007.008.013,0,.008.007.012.005.009.008.013,0,.007.01.017,0,.006.01.017,0,.007.008.013.005.008.007.012,0,.008.008.012,0,.008.009.014,0,.006.012.02v0l.011.018,0,.006.009.014,0,.007.008.014,0,.006.009.014,0,.007.01.016,0,0,.012.021,0,0,.011.018,0,.006.009.015,0,.007.008.014,0,.007.009.015,0,.006.011.018v0l.012.021,0,0,.01.016,0,.006.009.015,0,.006.009.015,0,.006.01.016,0,0,.025.042,0,0,.01.018,0,.006.009.015,0,.007.009.015,0,.006.009.016,0,0,.024.042,0,0,.009.016,0,.007.008.014,0,.007.008.014,0,.006.009.016,0,0,.024.042,0,0,.01.017,0,.005.009.016,0,.006.009.016,0,0,.011.02h0l.024.043,0,0,.01.017,0,0,.01.017,0,0,.01.018,0,0,.036.064,0,0,.01.018,0,0,.01.017,0,0,.011.019v0l.036.065v0l.01.019,0,0,.01.018,0,0,.048.087v0l.01.019,0,0,.01.019,0,0,.036.066h0l.011.02,0,0,.01.018,0,0,.011.019v0l.047.088v0l.011.02v0l.011.021h0l.047.089h0L57,17.86h0l.047.089h0l.011.022h0l.011.021h0l.058.112h0l.069.134h0l.058.112h0l.011.022h0q.069.136.137.272h0a33.332,33.332,0,0,1,2.554,7.016l-2.176.525A31.3,31.3,0,0,0,27.32,2.238V0ZM3.615,54.064A31.33,31.33,0,0,0,27.32,64.907a30.987,30.987,0,0,0,14.338-3.465l1.026,1.989a33.367,33.367,0,0,1-12.594,3.6l-.08.006-.08.006h0l-.08.006-.159.011h0l-.106.007-.053,0h0l-.026,0h0l-.08.005h0l-.081,0-.052,0h0l-.028,0-.053,0-.028,0h-.268l-.054,0h-.027l-.054,0H28.67l-.054,0h-.027l-.053,0h-.028l-.053,0h-.109l-.053,0H25.431l-.028,0-.027,0-.027,0-.026,0-.026,0-.026,0-.027,0-.027,0-.027,0-.027,0-.052,0-.027,0-.028,0-.027,0-.026,0-.025,0h0l-.028,0-.027,0-.027,0-.027,0-.026,0-.025,0-.028,0-.027,0-.027,0-.026,0-.026,0-.025,0-.028,0-.027,0-.027,0-.026,0-.026,0-.026,0-.028,0-.027,0-.027,0-.026,0-.026,0-.026,0-.028,0-.027,0-.027,0-.026,0L24.2,67l-.027,0-.027,0-.027,0-.027,0-.026,0-.025,0-.027,0-.028,0-.027,0-.027,0-.026,0-.026,0-.027,0-.027,0-.027,0-.027,0-.026,0-.025,0-.027,0-.027,0-.026,0-.026,0-.023,0h0l-.027,0-.027,0-.027,0-.027,0-.026,0-.025,0-.026,0-.027,0-.027,0-.026,0-.027,0-.024,0-.027,0-.027,0-.027,0-.026,0-.026,0-.025,0-.027,0-.027,0-.027,0-.026,0-.025,0-.025,0-.027,0-.027,0-.026,0-.026,0-.026,0-.025,0-.027,0-.027,0-.027,0-.026,0-.025,0-.026,0-.028,0-.026,0-.027,0-.025,0-.025,0-.026,0-.027,0-.026,0-.027,0-.026,0-.024,0-.027,0-.027,0-.027,0-.027,0-.026,0-.024,0-.026,0-.027,0-.026,0-.027,0-.025,0-.025,0-.027,0-.027,0-.026,0-.026,0-.025,0-.025,0-.027,0-.027,0-.027,0-.026,0-.024,0-.025,0-.027,0-.027,0-.026,0-.026,0-.025,0-.026,0-.027,0-.026,0-.026,0-.027,0-.023,0-.027,0-.027,0-.027,0-.026,0-.025,0-.024,0-.027,0-.027,0-.027,0-.026,0-.025,0-.024,0-.027-.005-.027,0-.026,0-.026,0-.025,0-.024,0-.027-.005-.026,0-.026-.005-.025,0-.025,0-.025,0-.027-.005-.026-.005-.027-.005-.025-.005-.025,0-.024,0-.027-.005-.026-.005-.026-.005-.026-.005-.025-.005-.023,0-.026-.005-.026-.005-.026-.005-.026-.005-.024,0-.026-.005-.027-.006-.026-.005-.026-.006-.025-.005-.024-.005-.026-.006-.027-.006-.026-.006-.027-.006-.025-.005-.022,0-.027-.006-.026-.006-.026-.006-.026-.006-.025-.005-.024-.005-.026-.006-.026-.006-.026-.006-.026-.006L19.81,66.3l-.025-.006-.027-.006-.026-.006-.025-.006-.027-.006-.023-.005-.024-.006-.026-.006-.026-.006-.026-.006-.026-.006-.022-.005-.026-.006-.026-.006-.027-.006-.026-.006-.025-.006-.024-.006-.024-.006-.026-.006-.026-.006-.026-.006-.025-.006-.022-.005-.026-.007-.026-.007-.027-.007-.025-.006-.024-.006-.023-.006-.027-.007L19,66.106l-.027-.007-.026-.007-.027-.007-.02-.005-.026-.007-.026-.007-.026-.007-.026-.007-.024-.006-.022-.006-.026-.007-.026-.007-.026-.007-.026-.007-.023-.006L18.6,66l-.026-.007-.027-.007-.027-.007-.025-.007-.02-.005-.026-.007-.026-.007-.025-.007-.026-.007-.026-.007-.023-.006-.024-.007-.026-.007-.026-.007L18.22,65.9,18.2,65.89l-.022-.006-.026-.007-.026-.007-.026-.007-.026-.007-.028-.008-.018-.005L18,65.834l-.026-.008-.026-.007-.027-.008-.028-.008-.017,0-.025-.007-.026-.008-.026-.008-.027-.008-.026-.008-.018-.005-.026-.008-.026-.008-.026-.008-.028-.008h0l-.039-.012L17.55,65.7l-.026-.008-.027-.008-.027-.008h0l-.039-.012h0l-.022-.007h0l-.022-.007h0l-.023-.007h0l-.025-.008-.014,0h0l-.023-.007h0l-.022-.007-.026-.008h0l-.021-.007h0l-.024-.008h0l-.04-.013h0l-.024-.008h0l-.023-.007h0l-.024-.008h0l-.04-.013h0l-.025-.008h0l-.022-.007h0l-.023-.008h0L16.9,65.5h0l-.04-.013h0l-.025-.008h0l-.023-.008h0l-.023-.007h0l-.025-.008h0l-.039-.013h0l-.023-.008h0l-.022-.007,0,0-.023-.008h0l-.066-.022h0l-.025-.008h0l-.023-.008h0l-.022-.007h0l-.039-.013h0l-.023-.008h0l-.022-.008h0l-.023-.008h0l-.024-.008h0l-.066-.023h0l-.025-.009h0l-.025-.009h0l-.092-.032h0l-.024-.009h0l-.025-.009h0l-.092-.033h0l-.026-.009h0l-.118-.043h0l-.025-.009h0l-.263-.1h0a33.487,33.487,0,0,1-7.754-4.137h0l-.021-.015,0,0-.1-.072h0l-.122-.089h0l-.022-.016h0L7.5,60.676h0l-.055-.04h0l-.02-.015,0,0L7.4,60.6h0l-.076-.056,0,0-.02-.015,0,0-.02-.015h0L7.2,60.454h0l-.019-.015,0,0-.019-.014,0,0L7.127,60.4h0l-.019-.015,0,0-.016-.012,0,0-.016-.012-.006,0-.016-.012-.005,0-.019-.015h0L7.006,60.3H7l-.02-.015,0,0-.016-.013,0,0-.017-.013,0,0-.019-.015h0l-.032-.024-.006,0L6.864,60.2l0,0-.018-.014,0,0-.017-.013,0,0L6.8,60.147l0,0-.031-.024,0,0L6.745,60.1l0,0-.016-.013-.005,0L6.7,60.071l-.006,0-.018-.014,0,0-.01-.008,0,0-.018-.014,0,0-.016-.013-.005,0L6.6,59.993l0,0-.018-.014,0,0-.031-.025,0,0-.017-.014-.005,0-.016-.012-.006,0L6.486,59.9l-.006,0-.014-.011-.006-.005-.009-.007-.011-.009-.01-.008-.006-.005-.014-.011L6.4,59.834l-.014-.011-.007-.006-.013-.01L6.361,59.8l-.013-.01-.007-.006-.009-.007-.011-.009-.009-.007L6.3,59.755l-.013-.011-.007-.005-.014-.011-.007-.005-.013-.011-.007-.006L6.233,59.7l-.01-.008-.009-.007-.012-.01-.008-.007-.01-.008-.011-.009-.008-.007-.012-.01-.008-.006-.013-.01-.007-.006-.012-.01L6.1,59.587l-.012-.01-.009-.007-.009-.007-.011-.009-.008-.007-.012-.01-.008-.007-.01-.008-.01-.008L6,59.508l-.012-.01-.017-.014-.013-.011-.006-.005-.013-.011-.007-.006-.013-.011-.007-.006-.012-.01-.008-.007-.009-.007-.012-.01-.008-.007-.012-.01-.007-.006-.009-.008-.011-.009-.008-.007L5.8,59.346l-.01-.008-.007-.006-.013-.011-.007-.006L5.755,59.3,5.748,59.3l-.013-.011-.007-.006-.011-.009-.008-.007L5.7,59.256l-.007-.006-.012-.011-.006-.005-.013-.011-.007-.006-.013-.011L5.633,59.2l-.013-.011-.006-.005-.012-.01-.007-.006-.012-.01-.007-.006-.012-.011-.006-.005-.013-.011-.006-.005-.014-.012-.006,0L5.5,59.092,5.5,59.086l-.011-.009-.008-.007-.012-.01-.005,0-.014-.012-.006,0-.014-.012-.006,0-.014-.012L5.4,59l-.014-.012-.005,0-.012-.01-.007-.006-.012-.011-.006,0-.014-.012-.006-.005-.014-.012-.006-.005-.014-.012-.005,0-.013-.012-.005,0-.013-.012,0,0-.015-.013,0,0-.015-.013,0,0L5.2,58.828l0,0L5.18,58.81l0,0-.015-.013,0,0-.014-.012,0,0-.015-.013,0,0-.015-.013,0,0-.015-.014,0,0-.015-.014,0,0-.014-.013,0,0-.015-.013,0,0-.016-.014,0,0-.016-.014,0,0-.016-.014,0,0-.016-.014,0,0-.016-.015h0l-.017-.015,0,0L4.9,58.56l0,0-.016-.014,0,0-.016-.014,0,0-.016-.015,0,0-.016-.015,0,0L4.8,58.476l0,0-.016-.014,0,0-.016-.014,0,0-.016-.014,0,0-.016-.015h0l-.017-.015h0l-.017-.016h0l-.017-.015,0,0-.016-.015,0,0-.017-.015,0,0L4.6,58.288h0l-.017-.016h0l-.017-.016,0,0-.017-.016h0l-.018-.016h0l-.037-.034h0l-.018-.016h0l-.017-.016,0,0-.017-.016h0l-.091-.086h0l-.11-.1h0q-1.213-1.149-2.308-2.415ZM27.32,0V2.238a31.292,31.292,0,0,0-25.5,13.12L0,14.056A33.753,33.753,0,0,1,9.493,5.119h0l.039-.024h0l.065-.04h0l.025-.016h0l.038-.024h0L9.687,5h0l.038-.024h0l.025-.015h0l.013-.008h0l.022-.013.005,0,.036-.022,0,0,.021-.013,0,0L9.9,4.869l.005,0,.02-.012,0,0,.024-.015.011-.007.007,0,.015-.009L10,4.806l.014-.009.019-.011.013-.008.02-.012.011-.006.014-.008.019-.011.013-.008.021-.013.021-.013.009-.005.015-.009.02-.012.022-.013.008,0,.015-.009.021-.012.022-.013.007,0,.016-.01.02-.012.007,0,.015-.009.007,0,.017-.01.006,0,.014-.008.005,0,.017-.01.007,0,.017-.01.006,0,.014-.008.006,0,.017-.01.007,0,.017-.01.005,0,.014-.008.006,0,.017-.01.007,0,.017-.01,0,0,.015-.009.006,0,.018-.01,0,0,.017-.01,0,0,.017-.01,0,0L10.7,4.4l0,0,.018-.01h0l.02-.011,0,0,.02-.011h0l.02-.011h0l.021-.012h0l.065-.036h0l.043-.024h0l.022-.012h0l.044-.024h0A33.354,33.354,0,0,1,23.782.184h0l.026,0,.052-.005h0l.026,0L23.94.168h0L24.02.16h0L24.1.153h0l.159-.015h0l.054,0,.079-.007.027,0h0l.054,0,.053,0,.027,0,.052,0,.027,0,.053,0,.026,0h0l.054,0,.027,0,.054,0,.08-.006.052,0h0l.028,0,.053,0,.027,0,.053,0,.027,0,.053,0,.081,0,.026,0h0l.027,0,.028,0h.025l.027,0,.028,0,.053,0h.108l.053,0h.243l.053,0h1.35Z" transform="translate(42.47 -5.797) rotate(45)" fill="#1f1deb"/>
      <path id="Ellipse_2" data-name="Ellipse 2" d="M28.3,0q.381,0,.76.01c.21.006.417.013.626.023A28.149,28.149,0,0,1,44.282,4.94l.02.014.077.053A28.27,28.27,0,0,1,56.6,28.3h0c0,.007,0,.015,0,.021s0,0,0,0,0,.012,0,.018,0,0,0,0c0,.084,0,.17,0,.254l-2.238-.023q0-.139,0-.278A26.064,26.064,0,0,0,28.3,2.238V0ZM.014,27.4l2.237.07c-.009.276-.013.556-.013.833A26.064,26.064,0,0,0,27.747,54.36L27.7,56.6q-1.417-.03-2.8-.2h0l-.044-.005-.022,0-.022,0-.022,0-.022,0-.02,0h0l-.02,0h0l-.02,0h0l-.022,0-.022,0-.022,0-.022,0-.022,0-.022,0-.022,0-.022,0-.022,0-.022,0-.022,0-.022,0-.022,0-.022,0-.022,0-.022,0-.022,0-.022,0-.022,0-.021,0-.022,0-.022,0-.022,0-.022,0-.022,0-.021,0-.022,0-.022,0-.022,0-.021,0-.019,0h0l-.02,0h0l-.021,0h0l-.021,0h0l-.022,0-.021,0h0l-.022,0h0l-.043-.007h0l-.388-.064h0l-.021,0h0l-.022,0-.022,0-.022,0-.022,0-.021,0-.022,0-.022,0-.022,0-.022,0-.022,0-.022,0-.021,0-.022,0-.022,0-.022,0-.022,0-.022,0-.022,0-.021,0-.021,0-.021,0-.022,0-.022,0-.021,0-.022,0-.022,0-.022,0-.022,0-.022,0-.021,0-.022,0-.021,0-.021,0-.021,0-.021,0-.021,0-.021,0-.021,0-.021,0-.021,0-.021,0-.021,0-.022,0-.021,0-.022,0-.022,0-.022,0-.021,0-.022,0-.022,0-.021,0-.021,0-.022,0-.021,0-.021,0-.021,0-.022,0-.021,0-.021,0-.021,0-.023-.005-.022,0-.022,0-.02,0-.021,0-.023-.005-.02,0-.076-.017h0l-.04-.009-.019,0-.019,0-.022-.005-.02,0-.02,0-.02,0-.022-.005-.022-.005-.021-.005-.021,0-.021-.005-.021,0-.021,0-.021-.005-.022-.005L21.56,55.8l-.021-.005-.02-.005-.021-.005-.021-.005-.021-.005-.021-.005-.022-.005-.021-.005-.021-.005-.021-.005-.021-.005-.021-.005-.021-.005-.021-.005-.021-.005-.021-.005-.021-.005-.021-.005L21.16,55.7l-.021-.006-.021-.005-.021-.005-.021-.006-.021-.006-.021-.006-.021-.006-.021-.006-.021-.006-.021-.006-.021-.006-.021-.006-.021-.006-.021-.006-.021-.006-.021-.006L20.8,55.6l-.021-.006-.021-.006-.021-.006-.021-.006-.021-.006-.021-.006-.021-.006-.021-.006-.021-.006-.021-.006-.021-.006-.021-.006-.021-.006-.021-.006-.021-.006-.021-.006-.021-.006-.146-.043-.021-.006-.021-.006-.02-.006-.021-.006-.021-.006-.021-.006-.021-.006-.021-.006-.021-.006L20.1,55.4l-.02-.006-.021-.006-.021-.006-.021-.006-.021-.006-.021-.006-.021-.006-.021-.006-.02-.006-.02-.006-.021-.006-.021-.007-.021-.006-.021-.006-.021-.007-.021-.007-.02-.006-.02-.007-.021-.007-.021-.007-.021-.007-.021-.007-.021-.007-.021-.007-.02-.007-.02-.007-.021-.007-.021-.007-.021-.007-.021-.007-.021-.007-.02-.007-.02-.007-.02-.007-.021-.007-.021-.007-.02-.007-.02-.007-.021-.007-.02-.007-.02-.007-.02-.007-.021-.007-.021-.007-.021-.007-.02-.007-.021-.007-.02-.007-.021-.007-.019-.007-.021-.007-.02-.007-.02-.007-.02-.007-.022-.008-.02-.007-.02-.007-.019-.007L18.882,55l-.022-.008,0,0-.163-.058h0l-.019-.007-.02-.007-.02-.007-.02-.007-.02-.007-.02-.007-.021-.008-.02-.007-.021-.008-.02-.007-.02-.008-.02-.007-.02-.008-.02-.007-.02-.008-.02-.007-.02-.008-.02-.008-.02-.008-.02-.008-.02-.008-.02-.008-.02-.008-.02-.008-.02-.008-.02-.008-.02-.008-.02-.008-.02-.008-.02-.008-.02-.008-.02-.008-.02-.008-.02-.008-.02-.008-.02-.008-.02-.008-.02-.008-.02-.008-.02-.008-.02-.008-.02-.008-.02-.008-.019-.008-.02-.008-.02-.008-.02-.008-.02-.008-.02-.008-.02-.008-.02-.008-.02-.008-.02-.008-.02-.008-.021-.008-.02-.008-.02-.008-.02-.008-.005,0-.015-.006-.02-.008-.019-.008-.019-.008-.021-.009-.02-.008,0,0-.016-.007h0l-.017-.007h0l-.018-.007h0l-.017-.007h0l-.018-.007h0l-.018-.008h0l-.158-.068h0l-.018-.008h0l-.018-.008h0l-.018-.008h0l-.018-.008h0l-.018-.008h0l-.017-.007h0l-.016-.007,0,0-.016-.007-.02-.009,0,0-.015-.007,0,0-.015-.007,0,0-.015-.007,0,0-.015-.007-.02-.009-.02-.009-.019-.009-.02-.009-.02-.009-.02-.009-.019-.009-.019-.009-.019-.009-.019-.009-.019-.009-.02-.009-.02-.009-.02-.009-.019-.009-.019-.009-.019-.009-.02-.009-.006,0-.013-.006-.007,0-.013-.006-.006,0-.013-.006-.007,0-.013-.006-.006,0L16.424,54l-.006,0-.013-.006-.006,0-.014-.006-.006,0-.013-.006-.019-.009-.02-.009-.02-.009-.006,0-.014-.006-.005,0-.014-.007-.005,0-.014-.007-.019-.009-.02-.009-.019-.009-.02-.009-.019-.009-.006,0-.014-.007,0,0-.014-.007-.019-.009-.019-.009-.006,0-.014-.007,0,0-.014-.007-.006,0-.014-.007,0,0L16,53.8l0,0-.018-.008h0l-.017-.008h0l-.018-.009h0l-.018-.009h0l-.037-.018h0l-.307-.153h0l-.057-.029h0l-.019-.009h0l-.016-.008h0l-.016-.008,0,0-.015-.008,0,0-.015-.008-.005,0L15.4,53.5l0,0-.014-.007,0,0-.015-.008,0,0-.015-.008,0,0-.015-.008,0,0L15.3,53.45l0,0-.015-.008,0,0-.014-.007-.019-.01,0,0-.014-.007,0,0L15.21,53.4l0,0-.014-.008,0,0-.014-.007,0,0-.014-.007,0,0-.014-.007,0,0-.014-.007-.006,0-.014-.007,0,0-.014-.007,0,0-.014-.007,0,0-.014-.007-.005,0-.014-.007-.005,0L15,53.291l0,0-.014-.008,0,0-.014-.007-.006,0-.014-.007,0,0-.014-.008,0,0-.014-.008,0,0-.013-.007-.006,0-.013-.007-.005,0-.013-.007-.005,0-.013-.007-.018-.01-.006,0L14.8,53.18l-.005,0-.014-.008,0,0-.014-.008-.018-.01-.005,0-.014-.008,0,0-.014-.008,0,0-.015-.008,0,0-.014-.008,0,0-.015-.008,0,0-.016-.009h0l-.017-.009h0l-.017-.009h0l-.018-.01h0l-.018-.01h0l-.018-.01h0l-.018-.01h0q-.224-.125-.445-.254h0l-.073-.043h0l-.017-.01h0l-.017-.01h0l-.017-.01h0l-.016-.01h0l-.016-.01h0l-.017-.01h0l-.017-.01h0l-.016-.01h0l-.016-.01h0l-.016-.01h0l-.016-.009,0,0-.015-.009,0,0-.015-.009h0l-.016-.01,0,0-.016-.009,0,0-.015-.009,0,0-.015-.009,0,0-.015-.009,0,0-.015-.009,0,0-.014-.009,0,0L13.61,52.5l0,0-.015-.009,0,0-.015-.009,0,0-.015-.009,0,0-.015-.009,0,0-.015-.009,0,0L13.5,52.43l0,0-.015-.009,0,0-.015-.009h0l-.016-.01h0l-.016-.01h0l-.016-.01,0,0-.016-.01h0l-.016-.01h0l-.016-.01h0l-.016-.01,0,0-.017-.01h0l-.017-.01h0l-.017-.011h0l-.017-.011h0l-.035-.022h0l-.018-.011h0l-.018-.011h0q-.324-.205-.642-.419h0l-.035-.024h0l-.017-.011h0l-.017-.012h0l-.017-.011h0l-.017-.011h0l-.017-.011h0l-.017-.011h0l-.017-.011h0l-.017-.011h0l-.017-.011h0l-.017-.011h0l-.017-.012h0l-.017-.012h0l-.017-.011h0l-.017-.011h0l-.017-.012h0l-.017-.012h0l-.017-.012h0l-.017-.012h0l-.035-.024h0l-.035-.024h0A28.352,28.352,0,0,1,1.1,36.134h0l-.012-.041h0l-.006-.02h0l-.006-.02v0l-.006-.019h0l-.006-.02h0l-.006-.02h0l-.006-.021h0l-.006-.02h0l-.006-.02h0l-.005-.02h0l-.005-.019v0l-.005-.019h0l-.005-.019v0l-.005-.019h0L1,35.8v0L1,35.778H1l-.005-.019v0l-.005-.019v0l-.005-.019v0l-.005-.019v0l-.005-.019v0l-.005-.02h0l-.005-.02h0l-.005-.02h0l-.005-.02h0l-.005-.02h0l-.005-.02h0L.924,35.5h0q-.1-.381-.189-.766h0l0-.021h0l0-.02v0l0-.019v0l0-.02v0l0-.02h0l0-.02v0l0-.02v0l0-.019v0l0-.018v0l0-.018v0l0-.017v0l0-.017v0l0-.018v0l0-.018v0l0-.017v0l0-.018v0l0-.018v0l0-.017v0l0-.017v0l0-.017v0l0-.017v0l0-.017v0l0-.018v0l0-.017v0l0-.017v0l0-.017v-.005l0-.017v0l0-.017v0l0-.017v0l0-.017v0l0-.017v0l0-.017v0l0-.017v0l0-.017v0l0-.017v0l0-.017v0l0-.018v0l0-.018v0l0-.018v0l0-.018v0l0-.019v0l0-.018v0l0-.019v0l0-.019v0l0-.021h0l0-.021h0l0-.021h0l0-.021h0l-.008-.042h0q-.042-.217-.08-.435h0l0-.021h0l0-.021v0l0-.02v0l0-.019v0l0-.018v0l0-.018v0l0-.018v0l0-.018v0l0-.017v0l0-.017V33l0-.016v-.006l0-.016v-.007l0-.015v-.006l0-.015v-.006l0-.016v-.006l0-.015v-.007l0-.015v-.006l0-.015v-.007l0-.015v-.007l0-.015v-.007l0-.015v-.006l0-.015V32.74l0-.015v-.007l0-.014V32.7l0-.015v-.007l0-.015v-.007l0-.015V32.63l0-.014v-.008l0-.014v-.007l0-.015v-.007l0-.015v-.006l0-.015v-.007l0-.015V32.5l0-.015v-.007l0-.015v-.007l0-.014v-.008l0-.014v-.008l0-.015V32.39l0-.015v-.007l0-.015v-.007l0-.015v-.007l0-.015V32.3l0-.015V32.28l0-.015v-.007l0-.015v-.007l0-.015v-.006l0-.016v-.006l0-.015V32.17l0-.016v-.006l0-.016v-.006l0-.016V32.1l0-.015v-.007l0-.016v-.006l0-.017v-.005l0-.017v-.005l0-.017v-.005l0-.018v0l0-.018v0l0-.019v0l0-.019v0l0-.02v0c-.01-.081-.02-.162-.03-.243v0l0-.018v0l0-.018v-.006l0-.016v-.007l0-.015v-.008l0-.015v-.006l0-.016V31.5l0-.016V31.48l0-.015v-.008l0-.015v-.008l0-.015v-.008l0-.014V30.119c0-.045-.006-.09-.008-.135V28.356s0-.005,0-.008,0-.012,0-.017,0,0,0-.005,0-.015,0-.023H0c0-.007,0-.014,0-.021s0,0,0,0,0-.013,0-.02,0,0,0,0,0-.013,0-.018,0,0,0,0v-.046c0-.007,0-.012,0-.018v-.621c0-.049,0-.1,0-.149Z" transform="translate(38.049 -2.765) rotate(45)" fill="#1f1deb"/>
    </g>
  </g>
</svg>
